<?xml version="1.0" encoding="UTF-8"?>
<svg width="34px" height="42px" viewBox="0 0 34 42" version="1.1" xmlns="http://www.w3.org/2000/svg" xmlns:xlink="http://www.w3.org/1999/xlink">
    <title>Group</title>
    <g id="Page-1" stroke="none" stroke-width="1" fill="none" fill-rule="evenodd">
        <g id="Group" fill-rule="nonzero">
            <polygon id="Path" fill="#F59E0B" points="0 42 0 0 34 0 34 42 17 31.8621"></polygon>
            <polygon id="Path" fill="#000000" points="10.95203 15 10.95203 24 9.19202 24 5.76001 17.96703 5.76001 24 4 24 4 15 5.76001 15 9.19789 21.03915 9.19789 15"></polygon>
            <polygon id="Path" fill="#000000" points="18.8157 22.55357 18.8157 24 14.2691 24 14.2691 22.55357"></polygon>
            <polygon id="Path" fill="#000000" points="14.844 15 14.844 24 13.08398 24 13.08398 15"></polygon>
            <polygon id="Path" fill="#000000" points="18.2232 18.66552 18.2232 20.07486 14.2691 20.07486 14.2691 18.66552"></polygon>
            <polygon id="Path" fill="#000000" points="18.8099 15 18.8099 16.45261 14.2691 16.45261 14.2691 15"></polygon>
            <polygon id="Path" fill="#000000" points="22.5024 22.57212 24.2037 15 25.1541 15 25.3712 16.26099 23.5584 24 22.5376 24"></polygon>
            <polygon id="Path" fill="#000000" points="21.6282 15 23.0362 22.57212 22.9189 24 21.7808 24 19.8858 15"></polygon>
            <polygon id="Path" fill="#000000" points="26.8672 22.54121 28.2576 15 30 15 28.1109 24 26.9728 24"></polygon>
            <polygon id="Path" fill="#000000" points="25.688 15 27.4011 22.60302 27.3541 24 26.3333 24 24.5088 16.25481 24.7434 15"></polygon>
        </g>
    </g>
</svg>