<svg width="60" height="60" viewBox="0 0 60 60" fill="none" xmlns="http://www.w3.org/2000/svg">
<g clip-path="url(#clip0_753_710)">
<path d="M34.1217 42.3201L34.1217 42.3201C27.4945 37.4857 25.5556 28.6352 29.2057 21.5794C28.9195 25.2135 29.4841 29.1423 31.0092 32.9793C33.2107 38.5205 37.0025 42.8378 41.3527 45.3005C38.8172 44.9168 36.3349 43.9347 34.1217 42.3201Z" stroke="#48DCBC"/>
<path d="M25.0708 40.0466L25.0708 40.0467C27.3439 45.0963 30.9696 49.0418 35.1569 51.4901C32.7125 50.9623 30.2429 50.1514 27.8107 49.0418L27.8106 49.0418C20.8752 45.8795 15.5834 40.9107 12.6235 35.4549C9.66383 29.9995 9.04734 24.0874 11.3892 18.9804C13.7251 13.8868 18.5933 10.4886 24.6456 9.14463C29.4654 8.07434 35.0167 8.31393 40.5728 10.0355C38.1244 9.98878 35.6804 10.452 33.3657 11.4877L33.3657 11.4877C23.577 15.8687 19.9648 28.6983 25.0708 40.0466Z" stroke="#48DCBC"/>
<path d="M40.6336 20.484C40.1465 17.8678 38.0058 15.7591 35.2191 15.4288C37.4289 14.3204 39.9673 13.7371 42.6195 13.7863C44.2115 13.8175 45.7401 14.0401 47.1751 14.4795C47.4481 14.5808 47.7154 14.6856 47.9755 14.7993C50.0113 15.7139 51.3095 17.8659 51.0328 20.1924L51.0327 20.1926C50.6922 23.0649 48.0799 25.121 45.1943 24.781L45.1942 24.781C42.8337 24.503 41.0272 22.7069 40.6344 20.4883L40.6344 20.4883L40.6336 20.484Z" stroke="#48DCBC"/>
<path d="M42.3933 34.6514L42.3933 34.6514C47.0541 38.0513 52.511 39.4462 57.5258 38.9245C51.2355 42.0578 43.2339 40.6665 38.1237 35.0246C34.7901 31.344 33.3845 26.6248 33.857 22.1441C34.9855 26.8604 37.9164 31.3855 42.3933 34.6514Z" stroke="#48DCBC"/>
<path d="M2.67393 32.4819L2.67391 32.4818C1.90239 27.9039 3.74472 23.3235 7.36827 19.7527C5.15233 24.9506 5.36416 29.9272 7.00408 34.3075C8.56373 38.4733 11.4083 42.0857 14.6535 44.8482C12.198 44.0022 9.80214 42.6317 7.79562 40.888C5.14636 38.5857 3.20933 35.6633 2.67393 32.4819Z" stroke="#48DCBC"/>
</g>
<defs>
<clipPath id="clip0_753_710">
<rect width="60" height="60" fill="white"/>
</clipPath>
</defs>
</svg>
