<svg width="135" height="40" viewBox="0 0 135 40" fill="none" xmlns="http://www.w3.org/2000/svg">
<path d="M24.0227 21.6448C22.6906 18.2383 22.3865 14.7396 22.957 11.6593C19.0587 17.2236 20.2819 24.9501 25.7343 28.9911C27.9566 30.6403 30.5429 31.4233 33.1004 31.4053C29.3197 29.9001 25.8808 26.4013 24.0204 21.6448H24.0227Z" fill="#70707B"/>
<path d="M19.6914 26.8603C16.0305 18.5938 18.6546 9.35077 25.5479 6.21652C28.2075 5.00602 31.1135 4.88452 33.893 5.66077C23.6852 0.971768 12.585 3.47152 9.06626 11.2678C5.54084 19.0843 10.9733 29.2633 21.2032 34.004C23.8318 35.2213 26.5225 35.9615 29.1288 36.2563C25.226 34.733 21.7139 31.4233 19.6936 26.858L19.6914 26.8603Z" fill="#70707B"/>
<path d="M26.7023 9.16173C28.5693 9.38673 30.0057 10.8222 30.332 12.602C30.6451 14.3997 32.0859 15.8555 33.9685 16.0827C36.2684 16.3595 38.3508 14.6922 38.6239 12.3635C38.8437 10.4757 37.8069 8.73198 36.1841 7.98948C35.9821 7.89948 35.7778 7.81848 35.5713 7.73973C34.488 7.40223 33.338 7.23123 32.1436 7.20873C29.6327 7.16148 27.2528 7.88148 25.3281 9.21348C25.6944 9.15498 26.316 9.11673 26.7023 9.16173Z" fill="#70707B"/>
<path d="M32.1858 22.7203C28.3651 19.8876 26.1339 15.7566 25.7876 11.6593C24.6687 15.6396 25.5856 20.1666 28.5937 23.5416C32.8895 28.3611 39.9226 29.1171 44.8222 25.4788C40.7973 26.5003 36.1041 25.6228 32.188 22.7181L32.1858 22.7203Z" fill="#70707B"/>
<path d="M7.59437 10.5073C4.00456 13.3311 2.0154 17.3833 2.69252 21.4761C3.50727 26.3968 8.56675 30.4131 13.422 31.4076C7.62989 27.1911 2.81684 19.2013 7.59437 10.5096V10.5073Z" fill="#70707B"/>
<path d="M56.8682 5.26929C58.198 5.26929 59.2103 5.55054 59.903 6.10854C60.5957 6.66879 60.942 7.41129 60.942 8.33604C60.942 8.75004 60.8865 9.14379 60.7733 9.51954C60.66 9.89529 60.4847 10.2418 60.2427 10.5635C60.0007 10.8853 59.6899 11.1688 59.308 11.4208C58.9262 11.6705 58.4689 11.8775 57.9316 12.0418C58.0715 12.2915 58.2202 12.593 58.3823 12.9463C58.5421 13.2995 58.7086 13.6798 58.8818 14.0893C59.0527 14.4965 59.2192 14.924 59.3813 15.3695C59.5411 15.815 59.6877 16.256 59.8164 16.6903H57.683C57.5542 16.2988 57.4188 15.9028 57.2789 15.5C57.139 15.0973 56.9925 14.708 56.8416 14.3345C56.6906 13.9588 56.5374 13.6055 56.382 13.2748C56.2266 12.944 56.0734 12.647 55.9225 12.386C55.827 12.3973 55.7071 12.4018 55.5673 12.4018H54.2641L53.7246 14.69C53.4471 15.8645 52.326 16.922 51.136 16.922L53.8467 5.55054C54.3618 5.44254 54.8857 5.36829 55.4163 5.33004C55.9469 5.29179 56.4331 5.27379 56.8726 5.27379L56.8682 5.26929ZM58.8796 8.56554C58.8796 7.96704 58.6642 7.55754 58.2357 7.33479C57.8073 7.11204 57.2323 6.99954 56.513 6.99954C56.362 6.99954 56.2022 7.00629 56.029 7.01529C55.8581 7.02654 55.6849 7.04229 55.514 7.06479L54.6459 10.7525H55.5473C56.029 10.7525 56.4753 10.712 56.8837 10.631C57.2922 10.55 57.643 10.4218 57.9383 10.2485C58.2335 10.0753 58.4644 9.84804 58.6309 9.57129C58.7974 9.29454 58.8796 8.95929 58.8796 8.56779V8.56554Z" fill="#70707B"/>
<path d="M62.7069 16.688H60.7599L62.7891 8.15601H64.736L62.7069 16.688ZM64.1566 7.27851C63.8658 7.27851 63.6149 7.19076 63.3996 7.01751C63.1842 6.84426 63.0777 6.58326 63.0777 6.23451C63.0777 5.83176 63.2153 5.50101 63.4884 5.24001C63.7614 4.97901 64.0767 4.84851 64.4297 4.84851C64.7183 4.84851 64.9736 4.93851 65.1934 5.11851C65.4132 5.29851 65.5242 5.56176 65.5242 5.91051C65.5242 6.31326 65.3843 6.64176 65.1046 6.89826C64.8248 7.15476 64.5096 7.28076 64.1544 7.28076L64.1566 7.27851Z" fill="#70707B"/>
<path d="M67.3646 15.302C67.8796 15.302 68.2881 15.2187 68.5878 15.05C68.8875 14.8812 69.0385 14.6225 69.0385 14.276C69.0385 13.9925 68.9408 13.7675 68.7499 13.5987C68.5568 13.43 68.2193 13.232 67.7353 13.0025C67.4778 12.8832 67.238 12.7572 67.0183 12.6267C66.7985 12.4962 66.6076 12.3432 66.4477 12.17C66.2879 11.9967 66.1591 11.792 66.0614 11.558C65.9637 11.324 65.9171 11.045 65.9171 10.7187C65.9171 9.87046 66.2235 9.19546 66.834 8.69596C67.4467 8.19646 68.3303 7.94446 69.4892 7.94446C70.0264 7.94446 70.506 8.00071 70.93 8.11546C71.354 8.23021 71.6737 8.34721 71.8868 8.46646L71.1942 10.001C71.0121 9.89296 70.7479 9.78721 70.4061 9.68371C70.0619 9.58021 69.7023 9.52846 69.3271 9.52846C69.1451 9.52846 68.9652 9.54421 68.7876 9.57796C68.61 9.60946 68.4524 9.66571 68.3125 9.73996C68.1727 9.81646 68.0572 9.92221 67.9662 10.0572C67.8752 10.1945 67.8286 10.3587 67.8286 10.5545C67.8286 10.8042 67.9285 11.009 68.1261 11.1665C68.3236 11.324 68.6123 11.4905 68.9874 11.6637C69.3404 11.828 69.6424 11.9855 69.8888 12.1362C70.1352 12.2892 70.3394 12.4602 70.4993 12.6492C70.6614 12.8405 70.779 13.052 70.8545 13.286C70.93 13.52 70.9677 13.799 70.9677 14.1252C70.9677 14.528 70.8878 14.8992 70.7257 15.2435C70.5659 15.5855 70.3306 15.8802 70.0264 16.1232C69.7201 16.3685 69.3426 16.562 68.892 16.7015C68.4413 16.8432 67.9263 16.913 67.3468 16.913C66.9494 16.913 66.592 16.886 66.2768 16.832C65.9593 16.778 65.684 16.715 65.4487 16.6452C65.2134 16.5755 65.0136 16.5012 64.8537 16.4247C64.6939 16.3482 64.5696 16.283 64.483 16.229L65.1756 14.6787C65.2511 14.7215 65.3599 14.78 65.5064 14.8497C65.6507 14.9195 65.8172 14.9892 66.0059 15.0545C66.1924 15.1197 66.4033 15.176 66.6342 15.2255C66.8651 15.275 67.1093 15.2997 67.3668 15.2997L67.3646 15.302Z" fill="#70707B"/>
<path d="M73.7139 16.688H71.7669L73.796 8.15601H75.743L73.7139 16.688ZM75.1636 7.27851C74.8728 7.27851 74.6219 7.19076 74.4065 7.01751C74.1912 6.84426 74.0846 6.58326 74.0846 6.23451C74.0846 5.83176 74.2223 5.50101 74.4953 5.24001C74.7684 4.97901 75.0837 4.84851 75.4366 4.84851C75.7252 4.84851 75.9805 4.93851 76.2003 5.11851C76.4201 5.29851 76.5311 5.56176 76.5311 5.91051C76.5311 6.31326 76.3913 6.64176 76.1115 6.89826C75.8318 7.15476 75.5166 7.28076 75.1614 7.28076L75.1636 7.27851Z" fill="#70707B"/>
<path d="M77.6678 8.51602C78.0963 8.38552 78.5869 8.26402 79.1397 8.14927C79.6925 8.03452 80.2963 7.97827 80.9512 7.97827C81.9392 7.97827 82.6629 8.22352 83.1246 8.71177C83.5864 9.20227 83.8173 9.85927 83.8173 10.685C83.8173 10.9145 83.7995 11.1553 83.7618 11.4118C83.7241 11.6683 83.6797 11.9315 83.6242 12.2038L82.5608 16.6903H80.616L81.6128 12.4153C81.6661 12.1768 81.7194 11.9315 81.7726 11.6818C81.8259 11.432 81.8592 11.1935 81.8703 10.964C81.8814 10.5838 81.7926 10.2688 81.6039 10.0168C81.4152 9.76702 81.0489 9.64102 80.5006 9.64102C80.0388 9.64102 79.6414 9.69052 79.3084 9.78727L77.6944 16.688H75.7341L77.6656 8.51377L77.6678 8.51602Z" fill="#70707B"/>
<path d="M87.8578 18.2045C89.0522 17.3473 89.2276 16.661 89.3674 16.0198L89.4163 15.7903C89.2009 15.8983 88.9434 15.9995 88.6437 16.0918C88.344 16.184 88.0265 16.2313 87.6935 16.2313C86.75 16.2313 86.0485 15.9725 85.5934 15.4573C85.136 14.9398 84.9096 14.2535 84.9096 13.394C84.9096 12.611 85.0428 11.8888 85.3114 11.225C85.58 10.5613 85.9575 9.98752 86.4459 9.50377C86.9343 9.02002 87.5226 8.64202 88.2086 8.36977C88.8946 8.09752 89.6583 7.96252 90.4952 7.96252C90.9037 7.96252 91.3411 8.00978 91.8073 8.10203C92.2735 8.19428 92.6953 8.34502 93.0705 8.54977L91.3633 15.7925C91.2123 16.4338 91.0214 17.003 90.7927 17.498C90.5618 17.993 90.2577 18.407 89.8825 18.7378C89.5073 19.0685 89.0433 19.3228 88.4905 19.496C87.9377 19.6693 87.2695 19.757 86.4858 19.757C85.9175 19.757 85.4047 19.694 84.9496 19.5703C84.4922 19.4443 84.0926 19.289 83.7507 19.1045C83.7507 19.1045 86.5413 19.154 87.86 18.2068L87.8578 18.2045ZM88.1731 14.6338C88.4617 14.6338 88.7592 14.5798 89.0655 14.4695C89.3697 14.3615 89.625 14.2243 89.8292 14.0623L90.8682 9.70627C90.6218 9.65227 90.3798 9.62527 90.1445 9.62527C89.6494 9.62527 89.2032 9.71752 88.7991 9.90202C88.3973 10.0865 88.051 10.3363 87.7601 10.6535C87.4715 10.9685 87.2451 11.3353 87.083 11.7538C86.9232 12.1723 86.841 12.6223 86.841 13.0993C86.841 13.5763 86.9432 13.9543 87.1452 14.2243C87.3494 14.4965 87.6913 14.6315 88.1731 14.6315V14.6338Z" fill="#70707B"/>
<path d="M102.492 7.28978C102.586 8.05478 103.112 11.6908 103.176 12.3005C103.24 12.9103 103.305 13.475 103.369 13.997C103.671 13.421 103.982 12.7865 104.304 12.0958C104.626 11.405 104.95 10.6895 105.272 9.95153C105.594 9.21128 105.911 8.45303 106.224 7.67678C106.537 6.89828 106.837 6.13553 107.128 5.38403H109.286C108.438 7.48328 107.578 9.46778 106.715 11.3398C105.849 13.2095 104.934 14.9938 103.966 16.6903H101.997C101.913 16.103 101.829 15.527 101.749 14.96C101.669 14.3953 101.593 13.8215 101.524 13.2388C101.456 12.656 101.391 12.0643 101.333 11.4613C101.276 10.8583 101.22 10.2305 101.165 9.57803C100.494 10.829 99.8327 12.0395 99.18 13.2073C98.5251 14.3773 97.8324 15.5383 97.0976 16.6903H95.1262C95.0418 15.743 94.9819 14.8025 94.9464 13.8688C94.9086 12.9328 94.8909 11.9765 94.8909 10.9978C94.8909 9.21353 94.953 7.34378 95.0751 5.38628H97.1043C97.0399 6.43028 96.9866 7.46528 96.9444 8.49353C96.9022 9.52178 96.88 10.5635 96.88 11.6188V12.8023C96.88 13.2005 96.8911 13.5988 96.9111 14.0015C97.2441 13.4458 97.5882 12.863 97.9434 12.2488C98.2986 11.6345 98.6472 11.0113 98.9935 10.3813C99.3376 9.75128 99.6751 9.11903 100.001 8.48903C100.33 7.85903 100.437 7.87253 100.727 7.29653H102.499L102.492 7.28978Z" fill="#70707B"/>
<path d="M115.06 13.3759C115.029 13.4952 114.996 13.6909 114.962 13.9632C114.931 14.2354 114.914 14.4897 114.914 14.7305C114.914 15.0455 114.94 15.3537 114.993 15.653C115.047 15.9522 115.133 16.2537 115.251 16.5574C115.251 16.5574 113.81 16.7285 113.206 15.986C112.938 16.2245 112.607 16.4404 112.216 16.6294C111.823 16.8207 111.381 16.9152 110.889 16.9152C110.396 16.9152 109.952 16.8297 109.592 16.6632C109.232 16.4944 108.939 16.2605 108.715 15.9612C108.489 15.662 108.322 15.311 108.216 14.9082C108.109 14.5055 108.056 14.0712 108.056 13.6032C108.056 12.8089 108.196 12.0687 108.475 11.3847C108.755 10.6984 109.144 10.1067 109.643 9.6072C110.143 9.1077 110.735 8.7117 111.421 8.4237C112.107 8.1357 112.86 7.9917 113.675 7.9917C114.094 7.9917 114.514 8.0277 114.938 8.09745C115.362 8.1672 115.788 8.3022 116.217 8.49795L115.058 13.3759H115.06ZM114.001 9.6882C113.797 9.64545 113.566 9.62295 113.308 9.62295C112.824 9.62295 112.378 9.7287 111.97 9.9402C111.561 10.1517 111.21 10.4352 110.915 10.7884C110.62 11.1417 110.391 11.5467 110.231 12.0034C110.069 12.4602 109.989 12.9394 109.989 13.4389C109.989 13.6887 110.012 13.9227 110.054 14.1409C110.096 14.3592 110.169 14.5482 110.271 14.7125C110.374 14.8745 110.511 15.0049 110.682 15.1039C110.853 15.2029 111.073 15.2502 111.341 15.2502C111.686 15.2502 111.987 15.176 112.252 15.0297C112.514 14.8835 112.758 14.6855 112.984 14.4335C112.995 14.15 113.02 13.8844 113.058 13.6347C113.095 13.3849 113.146 13.1352 113.211 12.8832L114.003 9.68595L114.001 9.6882Z" fill="#70707B"/>
<path d="M118.468 16.688C118.195 15.5788 117.948 14.2918 117.728 12.8293C117.509 11.3668 117.367 9.80751 117.302 8.15601H119.298C119.309 8.63526 119.327 9.15051 119.356 9.70626C119.382 10.262 119.418 10.8178 119.462 11.378C119.507 11.9383 119.558 12.4783 119.618 13.0003C119.678 13.5223 119.747 13.9948 119.822 14.42C120.102 14.051 120.404 13.6078 120.726 13.0903C121.047 12.5728 121.36 12.0305 121.662 11.459C121.964 10.8875 122.237 10.3138 122.486 9.73776C122.732 9.16176 122.932 8.63301 123.083 8.15601H125.112C124.855 8.90751 124.531 9.67926 124.144 10.4735C123.758 11.2678 123.339 12.0395 122.886 12.791C122.433 13.5403 121.969 14.2535 121.489 14.9285C121.01 15.6035 120.557 16.1908 120.126 16.6903H118.468V16.688Z" fill="#70707B"/>
<path d="M124.89 13.6055C124.89 12.8765 125.006 12.1722 125.237 11.4927C125.468 10.8132 125.801 10.2102 126.236 9.68146C126.671 9.15496 127.193 8.73196 127.805 8.41696C128.418 8.10196 129.104 7.94446 129.866 7.94446C130.68 7.94446 131.315 8.15596 131.766 8.58121C132.217 9.00646 132.443 9.54871 132.443 10.2125C132.443 10.8762 132.276 11.4522 131.943 11.8775C131.61 12.3027 131.18 12.6335 130.647 12.872C130.116 13.1105 129.515 13.2747 128.844 13.3625C128.174 13.4502 127.494 13.5042 126.809 13.5245C126.797 13.547 126.793 13.5672 126.793 13.5897V13.7517C126.793 14.7417 127.27 15.5067 128.44 15.905C129.513 16.2695 130.995 16.3775 130.995 16.3775C130.738 16.4967 130.374 16.616 129.901 16.7352C129.428 16.8545 128.893 16.9152 128.291 16.9152C127.69 16.9152 127.175 16.8275 126.746 16.6542C126.318 16.481 125.965 16.2402 125.692 15.9365C125.419 15.6327 125.217 15.2817 125.088 14.8835C124.959 14.4875 124.895 14.06 124.895 13.6032L124.89 13.6055ZM129.575 9.55996C129.253 9.55996 128.946 9.62521 128.658 9.75571C128.367 9.88621 128.109 10.0662 127.885 10.2935C127.659 10.523 127.463 10.7907 127.297 11.1012C127.13 11.4117 127.011 11.7447 126.935 12.1047C128.223 12.062 129.16 11.9045 129.743 11.6322C130.327 11.36 130.62 10.9527 130.62 10.4082C130.62 10.19 130.543 9.99421 130.387 9.82096C130.232 9.64771 129.961 9.55996 129.575 9.55996Z" fill="#70707B"/>
<path d="M57.9982 33.3223C57.5942 33.5406 57.1369 33.7116 56.6262 33.8308C56.1156 33.9501 55.6072 34.0108 55.1055 34.0108C54.5549 34.0108 54.051 33.9343 53.5937 33.7791C53.1363 33.6238 52.7434 33.3853 52.4126 33.0613C52.084 32.7373 51.8265 32.3233 51.6445 31.8193C51.4624 31.3153 51.3714 30.7101 51.3714 30.0013C51.3714 28.9348 51.5335 27.9808 51.8576 27.1371C52.1817 26.2933 52.6191 25.5823 53.1719 24.9973C53.7224 24.4146 54.3574 23.9668 55.0767 23.6586C55.7937 23.3503 56.5463 23.1951 57.3344 23.1951C57.7962 23.1951 58.2269 23.2446 58.6265 23.3436C59.0239 23.4426 59.4302 23.6068 59.8431 23.8363L59.3858 24.7633C58.6776 24.3246 57.925 24.1063 57.128 24.1063C56.5086 24.1063 55.9158 24.2436 55.3497 24.5181C54.7836 24.7926 54.2841 25.1841 53.8512 25.6926C53.4183 26.2011 53.0742 26.8176 52.8189 27.5398C52.5636 28.2621 52.4348 29.0721 52.4348 29.9698C52.4348 30.9868 52.6501 31.7631 53.0831 32.2963C53.516 32.8296 54.1798 33.0973 55.0744 33.0973C55.4674 33.0973 55.8181 33.0726 56.1223 33.0231C56.4264 32.9736 56.6906 32.9128 56.9126 32.8431C57.1346 32.7733 57.3211 32.7013 57.4743 32.6271C57.6275 32.5528 57.7562 32.4853 57.865 32.4246L57.9982 33.3223Z" fill="#70707B"/>
<path d="M62.0521 22.3603L63.0355 22.1803L61.2062 29.972C61.1285 30.3118 61.0508 30.6335 60.9776 30.9373C60.9043 31.241 60.8666 31.5223 60.8666 31.7833C60.8666 31.943 60.8821 32.0893 60.911 32.2243C60.9398 32.3593 60.9998 32.4785 61.0863 32.5843C61.1751 32.6878 61.2995 32.7823 61.4615 32.861C61.6236 32.9398 61.8323 33.0095 62.0854 33.0703L61.8656 33.923C61.1507 33.833 60.6512 33.6125 60.367 33.257C60.0829 32.9038 59.9408 32.456 59.9408 31.9183C59.9408 31.6798 59.9608 31.4278 60.0007 31.1623C60.0407 30.899 60.094 30.6223 60.1628 30.332L62.0521 22.3603Z" fill="#70707B"/>
<path d="M70.3638 28.4758C70.3638 29.414 70.2329 30.2263 69.9731 30.9125C69.7134 31.601 69.3781 32.1725 68.9697 32.6248C68.5612 33.0793 68.1083 33.4145 67.611 33.635C67.1137 33.8533 66.6253 33.9635 66.1435 33.9635C65.7994 33.9635 65.4731 33.9095 65.1623 33.7993C64.8515 33.689 64.5784 33.5248 64.3431 33.3065C64.1078 33.0883 63.9191 32.816 63.7814 32.492C63.6438 32.168 63.575 31.7923 63.575 31.3625C63.575 30.4265 63.7059 29.612 63.9657 28.9258C64.2254 28.2373 64.5607 27.6703 64.9691 27.2203C65.3776 26.7725 65.8305 26.4373 66.3278 26.219C66.8251 26.0008 67.3135 25.8905 67.7953 25.8905C68.1394 25.8905 68.4657 25.9445 68.7765 26.0548C69.0873 26.165 69.3604 26.3293 69.5957 26.5475C69.831 26.768 70.0175 27.038 70.1574 27.362C70.295 27.686 70.3638 28.0573 70.3638 28.4758ZM64.5496 31.3018C64.5496 31.8913 64.7116 32.3345 65.0357 32.6338C65.3599 32.933 65.7484 33.0815 66.2013 33.0815C66.5565 33.0815 66.9183 32.9893 67.2935 32.8048C67.6665 32.6203 68.0084 32.3413 68.3192 31.9678C68.63 31.5943 68.8853 31.1218 69.0873 30.5548C69.2893 29.9855 69.3892 29.3173 69.3892 28.55C69.3892 27.9628 69.2272 27.5173 68.9031 27.218C68.5789 26.9188 68.1904 26.7703 67.7375 26.7703C67.3823 26.7703 67.0182 26.8625 66.6453 27.047C66.2701 27.2315 65.9304 27.5105 65.6196 27.884C65.3088 28.2575 65.0535 28.73 64.8515 29.297C64.6495 29.8663 64.5496 30.5345 64.5496 31.3018Z" fill="#70707B"/>
<path d="M73.5563 33.9658C73.1323 33.9658 72.7793 33.9118 72.4929 33.8016C72.2065 33.6913 71.9801 33.5406 71.8136 33.3448C71.6471 33.1491 71.525 32.9218 71.4517 32.6563C71.3784 32.3931 71.3407 32.1051 71.3407 31.7968C71.3407 31.5088 71.3651 31.2006 71.414 30.8766C71.4628 30.5526 71.5272 30.2263 71.6049 29.8978L72.5195 26.0548H73.4764L72.6638 29.4658C72.5839 29.8146 72.4996 30.1813 72.4063 30.5661C72.3131 30.9508 72.2665 31.3153 72.2665 31.6663C72.2665 31.8666 72.2887 32.0511 72.3331 32.2198C72.3775 32.3886 72.4529 32.5393 72.5617 32.6676C72.6705 32.7981 72.8126 32.8971 72.9902 32.9668C73.1678 33.0366 73.3942 33.0703 73.6695 33.0703C74.1424 33.0703 74.5598 32.9758 74.9194 32.7868C75.2791 32.5978 75.6165 32.3233 75.9317 31.9633C75.9317 31.6933 75.9717 31.3851 76.0494 31.0363C76.1271 30.6876 76.2026 30.3726 76.2714 30.0936L77.2593 26.0548H78.214L77.0484 30.8406C76.9885 31.0903 76.9396 31.3243 76.9019 31.5426C76.8619 31.7608 76.842 31.9723 76.842 32.1703C76.842 32.4403 76.8664 32.6946 76.9152 32.9331C76.9641 33.1716 77.0529 33.4371 77.1816 33.7251L76.1959 33.8758C76.136 33.7566 76.0849 33.6193 76.0405 33.4641C75.9961 33.3088 75.965 33.1536 75.9451 32.9938C75.601 33.3336 75.2347 33.5788 74.8439 33.7341C74.4554 33.8893 74.0247 33.9658 73.5519 33.9658H73.5563Z" fill="#70707B"/>
<path d="M83.9861 33.8758C83.9372 33.7768 83.8884 33.644 83.8395 33.4798C83.7907 33.3155 83.7552 33.1535 83.7352 32.9938C83.6464 33.0928 83.5309 33.2008 83.3889 33.3155C83.2468 33.4303 83.0781 33.5338 82.8805 33.6305C82.6851 33.725 82.4631 33.8038 82.2189 33.869C81.9747 33.9343 81.7038 33.9658 81.4086 33.9658C80.9868 33.9658 80.6249 33.8893 80.3274 33.734C80.0277 33.5788 79.7835 33.3718 79.5926 33.113C79.4017 32.8543 79.2618 32.5483 79.173 32.1928C79.0842 31.8395 79.0398 31.4683 79.0398 31.079C79.0398 30.4513 79.1397 29.828 79.3417 29.2093C79.5437 28.5905 79.8523 28.0348 80.2697 27.542C80.6871 27.0493 81.2132 26.6465 81.8526 26.3383C82.4897 26.03 83.2401 25.8748 84.1059 25.8748C84.419 25.8748 84.7386 25.904 85.0628 25.9648L85.9086 22.3603L86.9187 22.1803L84.7941 31.1083C84.7453 31.2883 84.7076 31.4615 84.6831 31.6325C84.6587 31.8013 84.6454 31.9655 84.6454 32.1253C84.6454 32.4155 84.6698 32.6878 84.7187 32.9488C84.7675 33.2075 84.8563 33.4663 84.9851 33.7273L83.9905 33.878L83.9861 33.8758ZM84.8497 26.8468C84.712 26.8265 84.561 26.8085 84.3945 26.795C84.228 26.7793 84.0749 26.7725 83.9394 26.7725C83.2534 26.7725 82.6629 26.8985 82.1678 27.155C81.6728 27.4093 81.2665 27.7378 80.9468 28.1428C80.6293 28.5455 80.394 28.9955 80.2408 29.4883C80.0899 29.981 80.0122 30.467 80.0122 30.9463C80.0122 31.2455 80.0388 31.5223 80.0921 31.7765C80.1454 32.0308 80.232 32.2558 80.3496 32.4493C80.4673 32.6428 80.6182 32.7958 80.8047 32.906C80.9912 33.0163 81.2154 33.0703 81.4818 33.0703C81.726 33.0703 81.9592 33.0365 82.1812 32.9668C82.4009 32.897 82.6074 32.8093 82.7983 32.7058C82.9893 32.6023 83.1646 32.4853 83.32 32.3548C83.4777 32.2243 83.6086 32.1005 83.7174 31.9813C83.7174 31.7225 83.7507 31.43 83.8218 31.106C83.8906 30.782 83.9683 30.4445 84.0571 30.0958L84.8474 26.8513L84.8497 26.8468Z" fill="#70707B"/>
</svg>
