<svg width="135" height="40" viewBox="0 0 135 40" fill="none" xmlns="http://www.w3.org/2000/svg">
<path d="M56.8922 14.0338C58.2585 14.0338 59.2976 14.3145 60.0076 14.8776C60.7177 15.4406 61.0743 16.1859 61.0743 17.1136C61.0743 17.5282 61.0157 17.9251 60.9001 18.301C60.7844 18.6768 60.602 19.0269 60.3545 19.3496C60.107 19.6722 59.7861 19.9578 59.3953 20.2095C59.0044 20.4611 58.5321 20.6676 57.9817 20.8322C58.125 21.0839 58.2797 21.3872 58.4442 21.7405C58.6087 22.0954 58.7797 22.4777 58.9572 22.8875C59.1331 23.2973 59.3041 23.7248 59.4702 24.1733C59.6347 24.6218 59.7845 25.0638 59.9164 25.4994H57.7244C57.5925 25.1058 57.4524 24.7073 57.3091 24.304C57.1658 23.9007 57.0159 23.5102 56.8612 23.1327C56.7065 22.7552 56.5485 22.4019 56.3889 22.068C56.2293 21.7356 56.0714 21.4372 55.9167 21.1758C55.8173 21.1871 55.6968 21.192 55.5535 21.192H54.2132L53.6595 23.4893C53.3761 24.6686 52.2231 25.7301 51 25.7301L53.7832 14.3145C54.3125 14.2048 54.8499 14.1322 55.3955 14.0935C55.9411 14.0548 56.4394 14.0354 56.8922 14.0354V14.0338ZM58.9588 17.3427C58.9588 16.7425 58.7373 16.3295 58.2976 16.1069C57.8563 15.8826 57.2667 15.7713 56.529 15.7713C56.3743 15.7713 56.2098 15.7778 56.0323 15.7875C55.8564 15.7987 55.6789 15.8149 55.503 15.8375L54.6122 19.5383H55.5372C56.0323 19.5383 56.4899 19.498 56.9085 19.4157C57.327 19.3335 57.6885 19.206 57.9915 19.0302C58.2944 18.8559 58.5305 18.6284 58.7015 18.351C58.8725 18.0719 58.9572 17.7363 58.9572 17.3443L58.9588 17.3427Z" fill="#70707B"/>
<path d="M62.9065 25.5059H60.975L62.9847 17.2394H64.9162L62.9065 25.5059ZM64.3429 16.3892C64.0563 16.3892 63.8055 16.3053 63.5921 16.1359C63.3788 15.9681 63.2729 15.7149 63.2729 15.3777C63.2729 14.9873 63.4081 14.6662 63.6801 14.4129C63.9521 14.1597 64.2631 14.0338 64.6133 14.0338C64.8999 14.0338 65.1523 14.1209 65.3705 14.2952C65.5888 14.4694 65.6979 14.7243 65.6979 15.0615C65.6979 15.4519 65.5595 15.7697 65.2826 16.0182C65.0057 16.2666 64.6914 16.3892 64.3413 16.3892H64.3429Z" fill="#70707B"/>
<path d="M67.5235 24.1621C68.0348 24.1621 68.4387 24.0798 68.7367 23.9168C69.0348 23.7539 69.183 23.5038 69.183 23.1667C69.183 22.8924 69.0869 22.6746 68.8963 22.5101C68.7042 22.3471 68.3703 22.1551 67.8915 21.9325C67.6358 21.8163 67.3997 21.6954 67.1815 21.5695C66.9632 21.4437 66.7743 21.2953 66.6147 21.1275C66.4551 20.9597 66.3281 20.7613 66.232 20.5354C66.1359 20.3095 66.0887 20.0369 66.0887 19.7207C66.0887 18.8995 66.3916 18.2461 66.9974 17.7606C67.6033 17.2766 68.4811 17.033 69.6308 17.033C70.1617 17.033 70.6389 17.0878 71.0591 17.1991C71.4793 17.3104 71.7952 17.4234 72.0085 17.5395L71.3229 19.0254C71.1421 18.9205 70.8816 18.8173 70.5412 18.7172C70.2008 18.6172 69.8442 18.5672 69.4712 18.5672C69.2905 18.5672 69.1129 18.5833 68.9371 18.614C68.7612 18.6462 68.6048 18.6979 68.4664 18.7721C68.328 18.8463 68.214 18.9479 68.1228 19.0802C68.0316 19.2125 67.9876 19.3722 67.9876 19.5626C67.9876 19.8046 68.0853 20.003 68.2824 20.1547C68.4794 20.3079 68.7628 20.4676 69.1357 20.637C69.4859 20.7951 69.7839 20.9484 70.0298 21.0952C70.2741 21.2436 70.4761 21.4082 70.6357 21.5937C70.7953 21.7776 70.9125 21.9841 70.9874 22.21C71.0623 22.4375 71.0998 22.7085 71.0998 23.0247C71.0998 23.4151 71.02 23.7749 70.8604 24.1072C70.7008 24.4395 70.4695 24.7235 70.1666 24.9606C69.8637 25.1978 69.4891 25.3849 69.0413 25.5221C68.5951 25.6592 68.0837 25.7269 67.5088 25.7269C67.1147 25.7269 66.7613 25.7011 66.4486 25.6479C66.1343 25.5947 65.8607 25.535 65.6262 25.4656C65.3917 25.3978 65.1946 25.3269 65.035 25.2526C64.8754 25.1784 64.7533 25.1155 64.6686 25.0623L65.3542 23.5603C65.4291 23.6023 65.5382 23.6587 65.6815 23.7265C65.8249 23.7958 65.9893 23.8604 66.1766 23.9233C66.3623 23.9862 66.5707 24.0411 66.7987 24.0895C67.0267 24.1362 67.2694 24.1604 67.5251 24.1604L67.5235 24.1621Z" fill="#70707B"/>
<path d="M73.8162 25.5059H71.8848L73.8944 17.2394H75.8259L73.8162 25.5059ZM75.2526 16.3892C74.966 16.3892 74.7152 16.3053 74.5019 16.1359C74.2885 15.9681 74.1827 15.7149 74.1827 15.3777C74.1827 14.9873 74.3178 14.6662 74.5898 14.4129C74.8618 14.1597 75.1728 14.0338 75.523 14.0338C75.8096 14.0338 76.062 14.1209 76.2803 14.2952C76.4985 14.4694 76.6076 14.7243 76.6076 15.0615C76.6076 15.4519 76.4692 15.7697 76.1923 16.0182C75.9155 16.2666 75.6012 16.3892 75.251 16.3892H75.2526Z" fill="#70707B"/>
<path d="M77.7379 17.5863C78.1629 17.4605 78.6499 17.3411 79.1971 17.2298C79.7443 17.1201 80.3436 17.0636 80.9918 17.0636C81.9705 17.0636 82.6887 17.3008 83.1464 17.7751C83.604 18.2494 83.832 18.8866 83.832 19.6884C83.832 19.9094 83.8141 20.145 83.7766 20.3918C83.7392 20.6402 83.6936 20.8951 83.6414 21.1581L82.5878 25.5043H80.6595L81.6464 21.363C81.7002 21.1307 81.7523 20.8935 81.806 20.6515C81.8598 20.4096 81.8907 20.1772 81.9021 19.9562C81.9119 19.5868 81.8256 19.2819 81.6383 19.0399C81.4526 18.7979 81.0878 18.6769 80.5455 18.6769C80.0879 18.6769 79.6938 18.7237 79.3648 18.8189L77.7639 25.5059H75.821L77.7362 17.5863H77.7379Z" fill="#70707B"/>
<path d="M87.8399 26.9756C89.0238 26.1447 89.1965 25.4801 89.3349 24.859L89.3821 24.6379C89.1688 24.7428 88.9147 24.8412 88.6167 24.9299C88.3187 25.0203 88.0043 25.0638 87.6754 25.0638C86.7389 25.0638 86.0452 24.8138 85.5924 24.3137C85.1397 23.8135 84.9149 23.1473 84.9149 22.3148C84.9149 21.5566 85.0485 20.8548 85.3139 20.2127C85.5794 19.5706 85.954 19.014 86.4393 18.5446C86.923 18.0751 87.506 17.7089 88.1867 17.4459C88.8675 17.1829 89.6231 17.0507 90.4521 17.0507C90.856 17.0507 91.2892 17.0958 91.7533 17.1846C92.2158 17.2749 92.6327 17.4185 93.0057 17.6185L91.3136 24.6363C91.1638 25.259 90.9749 25.8092 90.7469 26.2883C90.5189 26.7675 90.2176 27.1676 89.8446 27.4902C89.4717 27.8113 89.0124 28.0565 88.4636 28.2259C87.9164 28.3937 87.2536 28.4792 86.4767 28.4792C85.9133 28.4792 85.4051 28.4179 84.9524 28.2969C84.4997 28.1759 84.1039 28.0258 83.7635 27.8468C83.7635 27.8468 86.5289 27.8935 87.8366 26.9756H87.8399ZM88.1509 23.5151C88.4375 23.5151 88.7323 23.4619 89.0352 23.357C89.3381 23.2521 89.5889 23.1198 89.7909 22.9617L90.8201 18.7414C90.5759 18.6881 90.3365 18.6623 90.1019 18.6623C89.6117 18.6623 89.1688 18.7527 88.7681 18.9317C88.3691 19.1108 88.0255 19.3528 87.7389 19.6593C87.4523 19.9659 87.2275 20.3208 87.0679 20.7257C86.9083 21.1323 86.8285 21.5662 86.8285 22.0293C86.8285 22.4923 86.9295 22.8569 87.1314 23.1198C87.3334 23.3828 87.6721 23.5151 88.1509 23.5151Z" fill="#70707B"/>
<path d="M102.09 15.9327C102.188 16.7087 102.733 20.3967 102.8 21.0146C102.867 21.6324 102.934 22.2052 103 22.7359C103.313 22.1519 103.635 21.5098 103.971 20.8081C104.305 20.1079 104.64 19.3835 104.976 18.6317C105.31 17.8816 105.64 17.112 105.963 16.3247C106.287 15.5358 106.598 14.7615 106.901 14H109.14C108.259 16.1279 107.37 18.1413 106.472 20.0385C105.575 21.9357 104.624 23.7442 103.621 25.4656H101.577C101.489 24.8703 101.403 24.2863 101.32 23.712C101.237 23.1393 101.158 22.5569 101.087 21.9664C101.015 21.3759 100.948 20.7758 100.888 20.1627C100.828 19.5513 100.769 18.9141 100.714 18.2526C100.018 19.5207 99.3328 20.7484 98.6536 21.9341C97.9745 23.1199 97.2547 24.2976 96.4925 25.4656H94.447C94.3607 24.5057 94.2972 23.5523 94.2598 22.6036C94.2223 21.655 94.2028 20.6838 94.2028 19.6917C94.2028 17.8832 94.2663 15.986 94.3933 14H96.4974C96.4306 15.0583 96.3753 16.1086 96.3297 17.1524C96.2857 18.1945 96.2629 19.2512 96.2629 20.3208V21.5195C96.2629 21.9228 96.2743 22.3278 96.2955 22.7359C96.6407 22.1729 96.999 21.5808 97.3671 20.9581C97.7351 20.3354 98.0983 19.703 98.455 19.0641C98.8116 18.4252 99.1617 17.7848 99.5021 17.1443C99.8425 16.5054 99.9532 16.52 100.255 15.9343H102.092L102.09 15.9327Z" fill="#70707B"/>
<path d="M114.804 22.297C114.772 22.4132 114.741 22.6036 114.708 22.8665C114.676 23.1295 114.661 23.3779 114.661 23.6086C114.661 23.9152 114.687 24.212 114.741 24.5024C114.794 24.7928 114.879 25.0848 114.996 25.38C114.996 25.38 113.568 25.5462 112.97 24.8267C112.705 25.059 112.378 25.2671 111.988 25.451C111.599 25.6349 111.161 25.7285 110.673 25.7285C110.184 25.7285 109.744 25.6462 109.388 25.4833C109.031 25.3203 108.741 25.0929 108.518 24.8041C108.295 24.5137 108.129 24.1749 108.023 23.7845C107.917 23.3941 107.863 22.973 107.863 22.5197C107.863 21.7501 108.002 21.0338 108.279 20.3692C108.555 19.7061 108.941 19.1318 109.435 18.6462C109.93 18.1622 110.518 17.7799 111.199 17.5008C111.879 17.2217 112.624 17.0813 113.433 17.0813C113.848 17.0813 114.265 17.1152 114.685 17.1846C115.106 17.2539 115.529 17.3814 115.954 17.5717L114.806 22.2987L114.804 22.297ZM113.755 18.7252C113.554 18.6833 113.324 18.6623 113.068 18.6623C112.589 18.6623 112.146 18.7656 111.743 18.9705C111.339 19.1753 110.989 19.4496 110.697 19.7916C110.404 20.1336 110.177 20.5273 110.018 20.9693C109.858 21.4114 109.778 21.876 109.778 22.36C109.778 22.602 109.8 22.8294 109.842 23.0392C109.884 23.2505 109.956 23.4344 110.057 23.5925C110.158 23.7506 110.293 23.8765 110.464 23.9716C110.633 24.0668 110.852 24.1136 111.119 24.1136C111.459 24.1136 111.759 24.0426 112.021 23.9007C112.282 23.7587 112.524 23.5667 112.747 23.3231C112.757 23.0488 112.782 22.7907 112.819 22.5487C112.856 22.3067 112.907 22.0647 112.97 21.8211L113.757 18.7236L113.755 18.7252Z" fill="#70707B"/>
<path d="M118.182 25.506C117.91 24.4315 117.667 23.1845 117.45 21.768C117.234 20.3499 117.092 18.8415 117.027 17.2395H119.006C119.017 17.7025 119.035 18.2043 119.063 18.7415C119.09 19.2787 119.125 19.8192 119.169 20.3612C119.213 20.9033 119.263 21.4276 119.322 21.9342C119.38 22.4408 119.449 22.8989 119.525 23.3087C119.802 22.9506 120.102 22.5214 120.421 22.0197C120.74 21.5196 121.05 20.992 121.349 20.4387C121.647 19.8853 121.919 19.3303 122.165 18.7705C122.411 18.2123 122.608 17.7009 122.756 17.2379H124.768C124.512 17.9655 124.191 18.7141 123.808 19.482C123.424 20.2515 123.009 21.0001 122.561 21.7261C122.113 22.4537 121.652 23.1441 121.177 23.7975C120.703 24.4509 120.252 25.0204 119.825 25.5044H118.182V25.506Z" fill="#70707B"/>
<path d="M124.549 22.5181C124.549 21.8115 124.663 21.1291 124.893 20.4709C125.121 19.8126 125.452 19.227 125.883 18.7156C126.315 18.2042 126.833 17.796 127.439 17.4911C128.044 17.1862 128.725 17.033 129.481 17.033C130.289 17.033 130.917 17.2378 131.363 17.6492C131.81 18.0606 132.033 18.5866 132.033 19.2303C132.033 19.874 131.868 20.4321 131.538 20.8419C131.207 21.2533 130.78 21.5744 130.253 21.8067C129.727 22.039 129.131 22.1971 128.466 22.281C127.802 22.3649 127.129 22.4181 126.448 22.4391C126.437 22.46 126.432 22.481 126.432 22.502V22.6601C126.432 23.6184 126.904 24.3605 128.064 24.7461C129.126 25.0994 130.596 25.2042 130.596 25.2042C130.341 25.3204 129.979 25.4366 129.512 25.5511C129.044 25.6673 128.512 25.7253 127.916 25.7253C127.32 25.7253 126.808 25.6414 126.383 25.4721C125.958 25.3043 125.61 25.072 125.338 24.7767C125.066 24.4815 124.867 24.1427 124.74 23.7571C124.613 23.3732 124.548 22.9586 124.548 22.5165L124.549 22.5181ZM129.193 18.5978C128.873 18.5978 128.57 18.6608 128.284 18.7882C127.997 18.914 127.741 19.0883 127.518 19.3093C127.295 19.5303 127.101 19.7917 126.935 20.0917C126.771 20.3918 126.65 20.7161 126.575 21.0646C127.852 21.0226 128.781 20.8693 129.36 20.6064C129.94 20.3434 130.23 19.9482 130.23 19.4206C130.23 19.2093 130.153 19.0205 129.999 18.8511C129.844 18.6833 129.575 18.5978 129.193 18.5978Z" fill="#70707B"/>
<path d="M23.9206 22.1136C22.5907 18.7873 22.2875 15.3731 22.8567 12.3669C18.9639 17.7984 20.1852 25.3408 25.631 29.2876C27.8505 30.8969 30.4333 31.6619 32.9874 31.6421C29.212 30.1716 25.7769 26.7574 23.9178 22.1136H23.9206Z" fill="#70707B"/>
<path d="M19.596 27.2052C15.9407 19.1358 18.5606 10.1145 25.4451 7.05167C28.1022 5.87017 31.0053 5.75117 33.7797 6.5105C23.586 1.93183 12.4971 4.37417 8.98477 11.9845C5.46389 19.6147 10.8896 29.5512 21.1062 34.1808C23.7318 35.3708 26.4175 36.0905 29.0203 36.3795C25.1219 34.892 21.6153 31.662 19.596 27.2052Z" fill="#70707B"/>
<path d="M26.5977 9.93038C28.4626 10.1485 29.8955 11.551 30.2216 13.2907C30.5333 15.0474 31.9749 16.4669 33.854 16.6879C36.1507 16.957 38.2329 15.3307 38.5047 13.0555C38.7249 11.2139 37.6895 9.51105 36.0678 8.78571C35.8676 8.69788 35.6616 8.61855 35.4557 8.54205C34.3717 8.21055 33.2248 8.04622 32.0321 8.02355C29.5266 7.97822 27.1469 8.68088 25.2249 9.97855C25.591 9.92188 26.2116 9.88505 26.5977 9.92755V9.93038Z" fill="#70707B"/>
<path d="M32.075 23.1648C28.2595 20.3994 26.0314 16.3676 25.6853 12.3669C24.567 16.2514 25.4823 20.6714 28.4883 23.9666C32.7786 28.6728 39.8032 29.4094 44.697 25.8564C40.6784 26.8538 35.9906 25.9981 32.0778 23.1619L32.075 23.1648Z" fill="#70707B"/>
<path d="M7.51178 11.2422C3.92798 13.999 1.94016 17.9544 2.61802 21.9494C3.43317 26.7547 8.48424 30.6732 13.3351 31.6422C7.55183 27.5254 2.74387 19.728 7.51464 11.2422H7.51178Z" fill="#70707B"/>
</svg>
